<?xml version="1.0" encoding="UTF-8"?>
<svg id="_레이어_1" data-name="레이어 1" xmlns="http://www.w3.org/2000/svg" viewBox="0 0 802.36 87.26">
  <defs>
    <style>
      .cls-1 {
        stroke: #000;
        stroke-miterlimit: 10;
        stroke-width: 1.5px;
      }
    </style>
  </defs>
  <path class="cls-1" d="M86.73,21c-5.13,0-9.22,2.33-11.5,6.45v-4.73c0-.66-.53-1.19-1.19-1.19h-1.08c-.66,0-1.19.53-1.19,1.19v42.42c0,.66.53,1.19,1.19,1.19h1.08c.66,0,1.19-.53,1.19-1.19v-24.81c0-5.92,1.47-15.84,11.33-15.84,3.65,0,6.5,1.29,9.11,4.16.43.47,1.14.56,1.64.16l.89-.71c.52-.42.61-1.21.16-1.71-3.27-3.65-6.99-5.37-11.62-5.37Z"/>
  <path class="cls-1" d="M127.11,21c-10.82,0-16.78,6.83-16.78,19.23v7.21c0,12.33,6.69,19.41,18.34,19.41,5.96,0,10.93-2.17,14.14-6.13.42-.52.28-1.31-.28-1.69l-.93-.64c-.51-.35-1.19-.23-1.6.25-2.69,3.19-6.41,4.75-11.33,4.75-12.31,0-14.9-8.66-14.9-15.93v-2.4h28.92c.66,0,1.19-.53,1.19-1.19v-3.63c0-12.4-5.96-19.23-16.78-19.23ZM140.44,41.57h-26.66v-1.34c0-10.31,4.61-15.75,13.33-15.75s13.33,5.3,13.33,15.75v1.34Z"/>
  <path class="cls-1" d="M236.35,58.38c-.51-.35-1.19-.23-1.6.25-2.68,3.16-6.48,4.75-11.33,4.75-12.31,0-14.9-8.66-14.9-15.93v-7.21c0-10.31,5.15-15.75,14.9-15.75,4.67,0,8.59,1.57,11.15,4.43.41.46,1.08.57,1.59.22l.92-.64c.56-.39.7-1.2.25-1.71-3.25-3.78-8.03-5.77-13.91-5.77-11.83,0-18.34,6.83-18.34,19.23v7.21c0,12.51,6.51,19.41,18.34,19.41,5.96,0,10.93-2.17,14.14-6.13.42-.52.28-1.31-.28-1.69l-.93-.64Z"/>
  <path class="cls-1" d="M269.54,21c-11.38,0-17.65,6.83-17.65,19.23v7.39c0,12.4,6.27,19.23,17.65,19.23s17.65-6.83,17.65-19.23v-7.39c0-12.4-6.27-19.23-17.65-19.23ZM269.54,63.37c-9.42,0-14.2-5.3-14.2-15.76v-7.39c0-10.45,4.78-15.75,14.2-15.75s14.2,5.3,14.2,15.75v7.39c0,10.45-4.78,15.76-14.2,15.76Z"/>
  <path class="cls-1" d="M315.73,21c-6.14,0-10.94,1.04-14.2,5.91-.36.53-.19,1.26.34,1.62l.89.61c.53.36,1.24.2,1.61-.33,2.79-4.02,6.23-4.33,11.36-4.33,9.01,0,11.76,2.55,11.76,10.92v5.56h-14.63c-8.47,0-13.73,4.81-13.73,12.55,0,8.48,5.51,13.34,15.12,13.34,3.66,0,9.97-.8,13.24-5.83v4.11c0,.66.53,1.19,1.19,1.19h1.08c.66,0,1.19-.53,1.19-1.19v-29.73c0-10.49-4.12-14.4-15.21-14.4ZM312.86,44.43h14.63v5.73c0,11.49-8.29,13.21-13.24,13.21-7.75,0-11.68-3.32-11.68-9.87,0-3.39,1.34-9.08,10.28-9.08Z"/>
  <path class="cls-1" d="M355.42,11.86h-1.07c-.66,0-1.19.53-1.19,1.19v8.48h-4.38c-.66,0-1.19.53-1.19,1.19v1.1c0,.66.53,1.19,1.19,1.19h4.38v27.36c0,8.38,2.05,13.96,12.08,13.96h2.27v-3.47h-2.18c-4.81,0-8.72-3.9-8.72-8.72v-29.12h10.3c.66,0,1.19-.53,1.19-1.19v-1.1c0-.66-.53-1.19-1.19-1.19h-10.3v-8.48c0-.66-.53-1.19-1.19-1.19Z"/>
  <path class="cls-1" d="M490.01,21c-10.82,0-16.78,6.83-16.78,19.23v7.21c0,12.33,6.69,19.41,18.34,19.41,5.96,0,10.93-2.17,14.14-6.13.42-.52.28-1.31-.28-1.69l-.93-.64c-.51-.35-1.19-.23-1.6.25-2.69,3.19-6.41,4.75-11.33,4.75-12.31,0-14.9-8.66-14.9-15.93v-2.4h28.92c.66,0,1.19-.53,1.19-1.19v-3.63c0-12.4-5.96-19.23-16.78-19.23ZM503.34,41.57h-26.66v-1.34c0-10.31,4.61-15.75,13.33-15.75s13.33,5.3,13.33,15.75v1.34Z"/>
  <path class="cls-1" d="M537.29,41.75c-6.47-1.15-12.58-2.23-12.58-9.08,0-7.4,8.17-8.19,11.68-8.19,5.93,0,9.06,1.28,11.77,4.99.38.52,1.1.68,1.64.32l.94-.63c.54-.36.71-1.1.34-1.64-3.07-4.49-7.66-6.51-14.7-6.51-9.47,0-15.12,4.36-15.12,11.67,0,8.93,6.92,10.96,14,12.28,9.1,1.73,14.36,3.91,14.36,9.96,0,5.69-4.05,8.46-12.37,8.46-6.26,0-9.84-1.41-12.72-5.12-.4-.51-1.1-.65-1.63-.28l-1,.69c-.55.38-.69,1.16-.28,1.69,3.52,4.53,8.25,6.48,15.54,6.48,13.84,0,15.91-7.48,15.91-11.93,0-8.54-6.29-11.44-15.78-13.16Z"/>
  <path class="cls-1" d="M585.98,21c-10.82,0-16.78,6.83-16.78,19.23v7.21c0,12.33,6.69,19.41,18.34,19.41,5.96,0,10.93-2.17,14.14-6.13.42-.52.28-1.31-.28-1.69l-.93-.64c-.51-.35-1.19-.23-1.6.25-2.69,3.19-6.41,4.75-11.33,4.75-12.31,0-14.9-8.66-14.9-15.93v-2.4h28.92c.66,0,1.19-.53,1.19-1.19v-3.63c0-12.4-5.96-19.23-16.78-19.23ZM599.31,41.57h-26.66v-1.34c0-10.31,4.61-15.75,13.33-15.75s13.33,5.3,13.33,15.75v1.34Z"/>
  <path class="cls-1" d="M633.83,21c-6.14,0-10.94,1.04-14.2,5.91-.36.53-.19,1.26.34,1.62l.89.61c.53.36,1.24.2,1.61-.33,2.79-4.02,6.23-4.33,11.36-4.33,9.01,0,11.76,2.55,11.76,10.92v5.56h-14.63c-8.47,0-13.73,4.81-13.73,12.55,0,8.48,5.51,13.34,15.12,13.34,3.66,0,9.97-.8,13.24-5.83v4.11c0,.66.53,1.19,1.19,1.19h1.08c.66,0,1.19-.53,1.19-1.19v-29.73c0-10.49-4.12-14.4-15.21-14.4ZM630.96,44.43h14.63v5.73c0,11.49-8.29,13.21-13.24,13.21-7.75,0-11.68-3.32-11.68-9.87,0-3.39,1.34-9.08,10.28-9.08Z"/>
  <path class="cls-1" d="M686.56,21c-5.13,0-9.22,2.33-11.5,6.45v-4.73c0-.66-.53-1.19-1.19-1.19h-1.08c-.66,0-1.19.53-1.19,1.19v42.42c0,.66.53,1.19,1.19,1.19h1.08c.66,0,1.19-.53,1.19-1.19v-24.81c0-5.92,1.47-15.84,11.33-15.84,3.65,0,6.5,1.29,9.11,4.16.43.47,1.14.56,1.64.16l.89-.71c.52-.42.61-1.21.16-1.71-3.27-3.65-6.99-5.37-11.62-5.37Z"/>
  <path class="cls-1" d="M741.43,58.38c-.51-.35-1.19-.23-1.6.25-2.68,3.16-6.48,4.75-11.33,4.75-12.31,0-14.9-8.66-14.9-15.93v-7.21c0-10.31,5.15-15.75,14.9-15.75,4.67,0,8.59,1.57,11.15,4.43.41.46,1.08.57,1.59.22l.92-.64c.56-.39.7-1.2.25-1.71-3.25-3.78-8.03-5.77-13.91-5.77-11.83,0-18.34,6.83-18.34,19.23v7.21c0,12.51,6.51,19.41,18.34,19.41,5.96,0,10.93-2.17,14.14-6.13.42-.52.28-1.31-.28-1.69l-.93-.64Z"/>
  <path class="cls-1" d="M776.18,21c-6.05,0-10.82,2.38-13.59,6.74V6.02c0-.66-.53-1.19-1.19-1.19h-1.08c-.66,0-1.19.53-1.19,1.19v59.12c0,.66.53,1.19,1.19,1.19h1.08c.66,0,1.19-.53,1.19-1.19v-24.81c.18-10.67,4.63-15.85,13.59-15.85,8.3,0,13.07,6.06,13.07,16.63v24.02c0,.66.53,1.19,1.19,1.19h1.08c.66,0,1.19-.53,1.19-1.19v-24.02c0-12.59-6.17-20.11-16.52-20.11Z"/>
  <path class="cls-1" d="M458.78,64.7l-13.65-25.34c8.3-2.3,12.68-8.07,12.68-16.71,0-11.49-7.6-17.82-21.39-17.82h-17.5c-.66,0-1.19.53-1.19,1.19v59.12c0,.66.53,1.19,1.19,1.19h1.07c.66,0,1.19-.53,1.19-1.19v-24.75h15.24c2.03,0,3.72-.1,5.17-.31l13.83,25.62c.21.38.61.62,1.04.62h1.36c.61,0,1.1-.49,1.1-1.1,0-.19-.05-.37-.14-.53ZM436.42,36.91h-15.24V8.3h15.24c11.9,0,17.94,4.83,17.94,14.35s-6.04,14.26-17.94,14.26Z"/>
  <circle class="cls-1" cx="367.5" cy="65.73" r=".59"/>
  <circle class="cls-1" cx="367.5" cy="63.44" r=".59"/>
  <rect class="cls-1" x="367.46" y="63.44" width=".64" height="2.29"/>
  <path class="cls-1" d="M193.07,22.27c.02-.06.03-.11.03-.18h0c0-.33-.27-.59-.59-.59h0,.01-1.92c-.5,0-.95.32-1.12.79l-13.99,39.36-3.58-8.25-12.86-31.17c-.18-.44-.62-.73-1.1-.73h-1.21c-.85,0-1.42.86-1.1,1.64l18.04,43.55-.13.45c-3.15,8.84-4.83,12.03-11.24,12.35-.64.03-1.16.54-1.16,1.19v1.1c0,.67.56,1.23,1.23,1.19,8.23-.43,11.29-5.26,14.48-14.93l16.19-45.75v-.02Z"/>
  <path class="cls-1" d="M52.61,37.51h0c0-.33-.27-.59-.59-.59h0s-20.02,0-20.02,0c-.66,0-1.19.53-1.19,1.19v1.1c0,.66.53,1.19,1.19,1.19h17.16c-.42,15.25-6.54,22.99-18.19,22.99s-17.85-7.55-17.85-23.76v-8.09c0-16.21,5.67-23.75,17.85-23.75,6.69,0,15.06,2.5,17.5,14.21.12.57.62.99,1.2.97l1.08-.04c.71-.03,1.26-.69,1.13-1.39-2.81-15.51-15.48-17.22-20.91-17.22-14.33,0-21.3,8.91-21.3,27.23v8.09c0,18.32,6.97,27.23,21.3,27.23s21.65-9.46,21.65-28.11v-1.23Z"/>
</svg>
